<svg id="visual" viewBox="0 0 960 300" width="960" height="300" xmlns="http://www.w3.org/2000/svg" xmlns:xlink="http://www.w3.org/1999/xlink" version="1.1"><rect x="0" y="0" width="960" height="300" fill="#ceab93"></rect><path d="M0 139L22.8 138.2C45.7 137.3 91.3 135.7 137 125.3C182.7 115 228.3 96 274 89.2C319.7 82.3 365.3 87.7 411.2 97.2C457 106.7 503 120.3 548.8 123.8C594.7 127.3 640.3 120.7 686 123.2C731.7 125.7 777.3 137.3 823 135C868.7 132.7 914.3 116.3 937.2 108.2L960 100L960 301L937.2 301C914.3 301 868.7 301 823 301C777.3 301 731.7 301 686 301C640.3 301 594.7 301 548.8 301C503 301 457 301 411.2 301C365.3 301 319.7 301 274 301C228.3 301 182.7 301 137 301C91.3 301 45.7 301 22.8 301L0 301Z" fill="#ceab93"></path><path d="M0 178L22.8 170C45.7 162 91.3 146 137 135.2C182.7 124.3 228.3 118.7 274 126.3C319.7 134 365.3 155 411.2 164.8C457 174.7 503 173.3 548.8 165.7C594.7 158 640.3 144 686 141.5C731.7 139 777.3 148 823 144.8C868.7 141.7 914.3 126.3 937.2 118.7L960 111L960 301L937.2 301C914.3 301 868.7 301 823 301C777.3 301 731.7 301 686 301C640.3 301 594.7 301 548.8 301C503 301 457 301 411.2 301C365.3 301 319.7 301 274 301C228.3 301 182.7 301 137 301C91.3 301 45.7 301 22.8 301L0 301Z" fill="#d3b197"></path><path d="M0 181L22.8 184.5C45.7 188 91.3 195 137 194.5C182.7 194 228.3 186 274 176.8C319.7 167.7 365.3 157.3 411.2 158.3C457 159.3 503 171.7 548.8 174.3C594.7 177 640.3 170 686 165C731.7 160 777.3 157 823 162.8C868.7 168.7 914.3 183.3 937.2 190.7L960 198L960 301L937.2 301C914.3 301 868.7 301 823 301C777.3 301 731.7 301 686 301C640.3 301 594.7 301 548.8 301C503 301 457 301 411.2 301C365.3 301 319.7 301 274 301C228.3 301 182.7 301 137 301C91.3 301 45.7 301 22.8 301L0 301Z" fill="#d7b79a"></path><path d="M0 216L22.8 216.7C45.7 217.3 91.3 218.7 137 216.8C182.7 215 228.3 210 274 202.8C319.7 195.7 365.3 186.3 411.2 189C457 191.7 503 206.3 548.8 210.3C594.7 214.3 640.3 207.7 686 205.2C731.7 202.7 777.3 204.3 823 204C868.7 203.7 914.3 201.3 937.2 200.2L960 199L960 301L937.2 301C914.3 301 868.7 301 823 301C777.3 301 731.7 301 686 301C640.3 301 594.7 301 548.8 301C503 301 457 301 411.2 301C365.3 301 319.7 301 274 301C228.3 301 182.7 301 137 301C91.3 301 45.7 301 22.8 301L0 301Z" fill="#dbbd9e"></path><path d="M0 213L22.8 218.2C45.7 223.3 91.3 233.7 137 237.5C182.7 241.3 228.3 238.7 274 238C319.7 237.3 365.3 238.7 411.2 236C457 233.3 503 226.7 548.8 225.8C594.7 225 640.3 230 686 227.8C731.7 225.7 777.3 216.3 823 218.8C868.7 221.3 914.3 235.7 937.2 242.8L960 250L960 301L937.2 301C914.3 301 868.7 301 823 301C777.3 301 731.7 301 686 301C640.3 301 594.7 301 548.8 301C503 301 457 301 411.2 301C365.3 301 319.7 301 274 301C228.3 301 182.7 301 137 301C91.3 301 45.7 301 22.8 301L0 301Z" fill="#dfc4a1"></path><path d="M0 252L22.8 252.5C45.7 253 91.3 254 137 256C182.7 258 228.3 261 274 260C319.7 259 365.3 254 411.2 253.7C457 253.3 503 257.7 548.8 257.5C594.7 257.3 640.3 252.7 686 253.5C731.7 254.3 777.3 260.7 823 260.2C868.7 259.7 914.3 252.3 937.2 248.7L960 245L960 301L937.2 301C914.3 301 868.7 301 823 301C777.3 301 731.7 301 686 301C640.3 301 594.7 301 548.8 301C503 301 457 301 411.2 301C365.3 301 319.7 301 274 301C228.3 301 182.7 301 137 301C91.3 301 45.7 301 22.8 301L0 301Z" fill="#e3caa5"></path></svg>