<svg id="visual" viewBox="0 0 960 300" width="960" height="300" xmlns="http://www.w3.org/2000/svg" xmlns:xlink="http://www.w3.org/1999/xlink" version="1.1"><path d="M0 186L12.3 178.5C24.7 171 49.3 156 74 149.3C98.7 142.7 123.3 144.3 148 148.3C172.7 152.3 197.3 158.7 221.8 165C246.3 171.3 270.7 177.7 295.2 178C319.7 178.3 344.3 172.7 369 170.7C393.7 168.7 418.3 170.3 443 167C467.7 163.7 492.3 155.3 517 152.8C541.7 150.3 566.3 153.7 591 158.5C615.7 163.3 640.3 169.7 664.8 172.7C689.3 175.7 713.7 175.3 738.2 170.2C762.7 165 787.3 155 812 156.5C836.7 158 861.3 171 886 177.5C910.7 184 935.3 184 947.7 184L960 184L960 301L947.7 301C935.3 301 910.7 301 886 301C861.3 301 836.7 301 812 301C787.3 301 762.7 301 738.2 301C713.7 301 689.3 301 664.8 301C640.3 301 615.7 301 591 301C566.3 301 541.7 301 517 301C492.3 301 467.7 301 443 301C418.3 301 393.7 301 369 301C344.3 301 319.7 301 295.2 301C270.7 301 246.3 301 221.8 301C197.3 301 172.7 301 148 301C123.3 301 98.7 301 74 301C49.3 301 24.7 301 12.3 301L0 301Z" fill="#04293a"></path><path d="M0 178L12.3 178.3C24.7 178.7 49.3 179.3 74 179.3C98.7 179.3 123.3 178.7 148 176.7C172.7 174.7 197.3 171.3 221.8 170C246.3 168.7 270.7 169.3 295.2 173.8C319.7 178.3 344.3 186.7 369 185.3C393.7 184 418.3 173 443 168.2C467.7 163.3 492.3 164.7 517 166.8C541.7 169 566.3 172 591 172.5C615.7 173 640.3 171 664.8 173C689.3 175 713.7 181 738.2 186.5C762.7 192 787.3 197 812 197.5C836.7 198 861.3 194 886 187.2C910.7 180.3 935.3 170.7 947.7 165.8L960 161L960 301L947.7 301C935.3 301 910.7 301 886 301C861.3 301 836.7 301 812 301C787.3 301 762.7 301 738.2 301C713.7 301 689.3 301 664.8 301C640.3 301 615.7 301 591 301C566.3 301 541.7 301 517 301C492.3 301 467.7 301 443 301C418.3 301 393.7 301 369 301C344.3 301 319.7 301 295.2 301C270.7 301 246.3 301 221.8 301C197.3 301 172.7 301 148 301C123.3 301 98.7 301 74 301C49.3 301 24.7 301 12.3 301L0 301Z" fill="#043044"></path><path d="M0 221L12.3 218.7C24.7 216.3 49.3 211.7 74 208.8C98.7 206 123.3 205 148 203.3C172.7 201.7 197.3 199.3 221.8 203.3C246.3 207.3 270.7 217.7 295.2 217.7C319.7 217.7 344.3 207.3 369 207.7C393.7 208 418.3 219 443 222C467.7 225 492.3 220 517 214.2C541.7 208.3 566.3 201.7 591 201.5C615.7 201.3 640.3 207.7 664.8 208C689.3 208.3 713.7 202.7 738.2 201.7C762.7 200.7 787.3 204.3 812 209.2C836.7 214 861.3 220 886 223C910.7 226 935.3 226 947.7 226L960 226L960 301L947.7 301C935.3 301 910.7 301 886 301C861.3 301 836.7 301 812 301C787.3 301 762.7 301 738.2 301C713.7 301 689.3 301 664.8 301C640.3 301 615.7 301 591 301C566.3 301 541.7 301 517 301C492.3 301 467.7 301 443 301C418.3 301 393.7 301 369 301C344.3 301 319.7 301 295.2 301C270.7 301 246.3 301 221.8 301C197.3 301 172.7 301 148 301C123.3 301 98.7 301 74 301C49.3 301 24.7 301 12.3 301L0 301Z" fill="#05374e"></path><path d="M0 223L12.3 223C24.7 223 49.3 223 74 226C98.7 229 123.3 235 148 236.5C172.7 238 197.3 235 221.8 233C246.3 231 270.7 230 295.2 232.7C319.7 235.3 344.3 241.7 369 241.3C393.7 241 418.3 234 443 230.8C467.7 227.7 492.3 228.3 517 229.5C541.7 230.7 566.3 232.3 591 234C615.7 235.7 640.3 237.3 664.8 235.7C689.3 234 713.7 229 738.2 231.3C762.7 233.7 787.3 243.3 812 246.5C836.7 249.7 861.3 246.3 886 245.5C910.7 244.7 935.3 246.3 947.7 247.2L960 248L960 301L947.7 301C935.3 301 910.7 301 886 301C861.3 301 836.7 301 812 301C787.3 301 762.7 301 738.2 301C713.7 301 689.3 301 664.8 301C640.3 301 615.7 301 591 301C566.3 301 541.7 301 517 301C492.3 301 467.7 301 443 301C418.3 301 393.7 301 369 301C344.3 301 319.7 301 295.2 301C270.7 301 246.3 301 221.8 301C197.3 301 172.7 301 148 301C123.3 301 98.7 301 74 301C49.3 301 24.7 301 12.3 301L0 301Z" fill="#053e58"></path><path d="M0 263L12.3 262.5C24.7 262 49.3 261 74 259.5C98.7 258 123.3 256 148 255.2C172.7 254.3 197.3 254.7 221.8 256.3C246.3 258 270.7 261 295.2 263.5C319.7 266 344.3 268 369 265.8C393.7 263.7 418.3 257.3 443 256.3C467.7 255.3 492.3 259.7 517 264.2C541.7 268.7 566.3 273.3 591 271.8C615.7 270.3 640.3 262.7 664.8 258.5C689.3 254.3 713.7 253.7 738.2 257.3C762.7 261 787.3 269 812 270C836.7 271 861.3 265 886 262.3C910.7 259.7 935.3 260.3 947.7 260.7L960 261L960 301L947.7 301C935.3 301 910.7 301 886 301C861.3 301 836.7 301 812 301C787.3 301 762.7 301 738.2 301C713.7 301 689.3 301 664.8 301C640.3 301 615.7 301 591 301C566.3 301 541.7 301 517 301C492.3 301 467.7 301 443 301C418.3 301 393.7 301 369 301C344.3 301 319.7 301 295.2 301C270.7 301 246.3 301 221.8 301C197.3 301 172.7 301 148 301C123.3 301 98.7 301 74 301C49.3 301 24.7 301 12.3 301L0 301Z" fill="#064663"></path></svg>